<svg viewBox="0 0 24 24" xmlns="http://www.w3.org/2000/svg">
  <path fill="#e31937" d="M24 12.3c0-1.1-.1-2.2-.2-3.3H12.3v6.6h6.6c-.3 1.6-1.2 3-2.5 3.9v3.1h4c2.4-2.2 3.8-5.5 3.8-9.4 0-.9-.1-1.8-.2-2.9z"/>
  <path fill="#4285f4" d="M12.3 24c3.4 0 6.2-1.1 8.3-3l-4-3.1c-1.1.7-2.5 1.2-4.2 1.2-3.2 0-6-2.2-7-5.2H1.2v3.2c2.1 4.2 6.4 7 11.1 7z"/>
  <path fill="#34a853" d="M5.3 14.8c-.2-.7-.4-1.4-.4-2.1s.1-1.4.4-2.1V7.4H1.2C.4 8.9 0 10.4 0 12s.4 3.1 1.2 4.6l4.1-3.2z"/>
  <path fill="#fbbc05" d="M12.3 4.8c1.8 0 3.4.6 4.7 1.8l3.5-3.5C18.5 1.1 15.7 0 12.3 0 7.6 0 3.3 2.7 1.2 7.4l4.1 3.2c1-3 3.8-5.2 7-5.2z"/>
</svg>
