<svg viewBox="0 0 24 24" xmlns="http://www.w3.org/2000/svg">
  <path fill="#ff6900" d="M12 0C5.4 0 0 5.4 0 12s5.4 12 12 12 12-5.4 12-12S18.6 0 12 0zm5.5 17.9c-.8.8-1.9 1.2-3.1 1.2H9.6c-1.2 0-2.3-.4-3.1-1.2-.8-.8-1.2-1.9-1.2-3.1V9.2c0-1.2.4-2.3 1.2-3.1.8-.8 1.9-1.2 3.1-1.2h4.8c1.2 0 2.3.4 3.1 1.2.8.8 1.2 1.9 1.2 3.1v5.6c0 1.2-.4 2.3-1.2 3.1z"/>
  <path fill="#fff" d="M14.4 8.1H9.6c-.8 0-1.5.7-1.5 1.5v4.8c0 .8.7 1.5 1.5 1.5h4.8c.8 0 1.5-.7 1.5-1.5V9.6c0-.8-.7-1.5-1.5-1.5zm-2.4 6.4c-1.1 0-2-.9-2-2s.9-2 2-2 2 .9 2 2-.9 2-2 2z"/>
</svg>
