<svg viewBox="0 0 24 24" xmlns="http://www.w3.org/2000/svg">
  <path fill="#65a637" d="M12.2 2.4c-.5 0-1 .1-1.4.3L4.7 5.1c-.8.4-1.3 1.2-1.3 2.1v9.6c0 .9.5 1.7 1.3 2.1l6.1 2.4c.4.2.9.3 1.4.3s1-.1 1.4-.3l6.1-2.4c.8-.4 1.3-1.2 1.3-2.1V7.2c0-.9-.5-1.7-1.3-2.1l-6.1-2.4c-.4-.2-.9-.3-1.4-.3z"/>
  <path fill="#fff" d="M12.2 6.5c-1.6 0-2.9 1.3-2.9 2.9v5.2c0 1.6 1.3 2.9 2.9 2.9s2.9-1.3 2.9-2.9V9.4c0-1.6-1.3-2.9-2.9-2.9zm1.5 7.9c0 .8-.7 1.5-1.5 1.5s-1.5-.7-1.5-1.5V9.6c0-.8.7-1.5 1.5-1.5s1.5.7 1.5 1.5v4.8z"/>
</svg>
